<!--?xml version="1.0" encoding="utf-8"?-->
<!-- Generator: Adobe Illustrator 16.0.0, SVG Export Plug-In . SVG Version: 6.00 Build 0)  -->

<svg version="1.1" id="圖層_1" xmlns="http://www.w3.org/2000/svg" xmlns:xlink="http://www.w3.org/1999/xlink" x="0px" y="0px" width="480px" height="480px" viewBox="0 0 480 480" enable-background="new 0 0 480 480" xml:space="preserve" style="">
<path d="M400,152c-17.672,0-32,14.328-32,32s14.328,32,32,32s32-14.328,32-32S417.672,152,400,152z M400,200
	c-8.836,0-16-7.164-16-16s7.164-16,16-16s16,7.164,16,16S408.836,200,400,200z" class="pkjjlQGI_0"></path>
<path fill="none" stroke="#231815" stroke-width="7" stroke-miterlimit="10" d="M48,136c0-13.254-10.746-24-24-24H8
	c-4.418,0-8,3.582-8,8v96c0,4.418,3.582,8,8,8h16c13.254,0,24-10.746,24-24h56v16c0,4.418,3.582,8,8,8h32c4.418,0,8-3.582,8-8v-16h8
	v104c0-3.668-2.496-6.867-6.055-7.762l-10.336-2.582l5.48-9.137c1.887-3.148,1.391-7.18-1.211-9.777l-22.621-22.621
	c-2.598-2.602-6.629-3.098-9.777-1.211l-9.137,5.48l-2.582-10.336C102.867,242.496,99.668,240,96,240H64
	c-3.668,0-6.867,2.496-7.762,6.055l-2.582,10.336l-9.137-5.48c-3.148-1.887-7.18-1.391-9.777,1.211l-22.621,22.621
	c-2.602,2.598-3.098,6.629-1.211,9.777l5.48,9.137l-10.336,2.582C2.496,297.133,0,300.332,0,304v32c0,3.668,2.496,6.867,6.055,7.762
	l10.336,2.582l-5.48,9.137c-1.887,3.148-1.391,7.18,1.211,9.777l22.621,22.621c2.598,2.602,6.629,3.098,9.777,1.211l9.137-5.48
	l2.582,10.336C57.133,397.504,60.332,400,64,400h32c3.668,0,6.867-2.496,7.762-6.055l2.582-10.336l9.137,5.48
	c3.148,1.887,7.18,1.391,9.777-1.211l22.621-22.621c2.602-2.598,3.098-6.629,1.211-9.777l-5.48-9.137l10.336-2.582
	c3.559-0.895,6.055-4.094,6.055-7.762v64c0,44.184,35.816,80,80,80s80-35.816,80-80v-32h8v16c0,4.418,3.582,8,8,8h32
	c4.418,0,8-3.582,8-8v-16h56c0,13.254,10.746,24,24,24h16c4.418,0,8-3.582,8-8v-96c0-4.418-3.582-8-8-8h-16
	c-13.254,0-24,10.746-24,24h-56v-16c0-4.418-3.582-8-8-8h-32c-4.418,0-8,3.582-8,8v16h-8V200c0,3.668,2.496,6.867,6.055,7.762
	l10.336,2.582l-5.48,9.137c-1.887,3.148-1.391,7.18,1.211,9.777l22.621,22.621c2.598,2.602,6.629,3.098,9.777,1.211l9.137-5.48
	l2.582,10.336c0.895,3.559,4.094,6.055,7.762,6.055h32c3.668,0,6.867-2.496,7.762-6.055l2.582-10.336l9.137,5.48
	c3.148,1.887,7.18,1.391,9.777-1.211l22.621-22.621c2.602-2.598,3.098-6.629,1.211-9.777l-5.48-9.137l10.336-2.582
	c3.559-0.895,6.055-4.094,6.055-7.762v-32c0-3.668-2.496-6.867-6.055-7.762l-10.336-2.582l5.48-9.137
	c1.887-3.148,1.391-7.18-1.211-9.777l-22.621-22.621c-2.598-2.602-6.629-3.098-9.777-1.211l-9.137,5.48l-2.582-10.336
	C422.867,106.496,419.668,104,416,104h-32c-3.668,0-6.867,2.496-7.762,6.055l-2.582,10.336l-9.137-5.48
	c-3.148-1.887-7.18-1.391-9.777,1.211l-22.621,22.621c-2.602,2.598-3.098,6.629-1.211,9.777l5.48,9.137l-10.336,2.582
	C322.496,161.133,320,164.332,320,168V96h48c4.418,0,8-3.582,8-8V24c0-13.254-10.746-24-24-24H128c-13.254,0-24,10.746-24,24v64
	c0,4.418,3.582,8,8,8h48v40h-8v-16c0-4.418-3.582-8-8-8h-32c-4.418,0-8,3.582-8,8v16H48 M32,200c0,4.418-3.582,8-8,8h-8v-80h8
	c4.418,0,8,3.582,8,8V200z M48,184v-32h56v32H48z M136,208h-16v-80h16V208z M144,329.754l-14.754,3.688
	c-2.457,0.613-4.48,2.355-5.449,4.699c-0.973,2.344-0.773,5.004,0.531,7.18l7.824,13.039l-13.754,13.793l-13.039-7.824
	c-2.172-1.305-4.836-1.504-7.18-0.531c-2.34,0.969-4.086,2.992-4.699,5.449L89.754,384H70.246l-3.688-14.754
	c-0.613-2.457-2.355-4.48-4.699-5.449c-2.344-0.973-5.004-0.773-7.18,0.531l-13.039,7.824l-13.793-13.754l7.824-13.039
	c1.305-2.172,1.504-4.836,0.531-7.18c-0.969-2.34-2.992-4.086-5.449-4.699L16,329.754v-19.508l14.754-3.688
	c2.457-0.613,4.48-2.355,5.449-4.699c0.973-2.344,0.773-5.004-0.531-7.18l-7.824-13.039l13.793-13.793l13.039,7.824
	c2.176,1.305,4.836,1.504,7.18,0.531c2.344-0.969,4.086-2.992,4.699-5.449L70.246,256h19.508l3.688,14.754
	c0.613,2.457,2.355,4.48,4.699,5.449c2.344,0.973,5.004,0.773,7.18-0.531l13.039-7.824l13.793,13.793l-7.824,13.039
	c-1.305,2.176-1.504,4.836-0.531,7.18c0.969,2.344,2.992,4.086,5.449,4.699L144,310.246V329.754z M448,304c0-4.418,3.582-8,8-8h8v80
	h-8c-4.418,0-8-3.582-8-8V304z M432,320v32h-56v-32H432z M344,296h16v80h-16V296z M120,24c0-4.418,3.582-8,8-8h224
	c4.418,0,8,3.582,8,8v56H120V24z M152,184v-32h8v32H152z M304,400c0,35.348-28.652,64-64,64s-64-28.652-64-64V96h128V400z M328,320
	v32h-8v-32H328z M464,193.754l-14.754,3.688c-2.457,0.613-4.48,2.355-5.449,4.699c-0.973,2.344-0.773,5.004,0.531,7.18l7.824,13.039
	l-13.754,13.793l-13.039-7.824c-2.172-1.305-4.836-1.504-7.18-0.531c-2.34,0.969-4.086,2.992-4.699,5.449L409.754,248h-19.508
	l-3.688-14.754c-0.613-2.457-2.355-4.48-4.699-5.449c-2.344-0.973-5.004-0.773-7.18,0.531l-13.039,7.824l-13.793-13.754
	l7.824-13.039c1.305-2.172,1.504-4.836,0.531-7.18c-0.969-2.34-2.992-4.086-5.449-4.699L336,193.754v-19.508l14.754-3.688
	c2.457-0.613,4.48-2.355,5.449-4.699c0.973-2.344,0.773-5.004-0.531-7.18l-7.824-13.039l13.793-13.793l13.039,7.824
	c2.176,1.305,4.836,1.504,7.18,0.531c2.344-0.969,4.086-2.992,4.699-5.449L390.246,120h19.508l3.688,14.754
	c0.613,2.457,2.355,4.48,4.699,5.449c2.344,0.973,5.004,0.773,7.18-0.531l13.039-7.824l13.793,13.754l-7.824,13.039
	c-1.305,2.172-1.504,4.836-0.531,7.18c0.969,2.34,2.992,4.086,5.449,4.699L464,174.246V193.754z" class="pkjjlQGI_1"></path>
<path d="M80,288c-17.672,0-32,14.328-32,32s14.328,32,32,32s32-14.328,32-32S97.672,288,80,288z M80,336c-8.836,0-16-7.164-16-16
	s7.164-16,16-16s16,7.164,16,16S88.836,336,80,336z" class="pkjjlQGI_2"></path>
<path d="M232.879,180.344C227.39,191.039,200,245.336,200,264c0,22.09,17.91,40,40,40s40-17.91,40-40
	c0-18.664-27.391-72.961-32.879-83.656c-1.516-2.484-4.211-4-7.121-4S234.394,177.859,232.879,180.344z M240,288
	c-13.254,0-24-10.746-24-24c0-9.367,12.801-38.809,24-62.039c11.199,23.199,24,52.672,24,62.039C264,277.254,253.254,288,240,288z" class="pkjjlQGI_3"></path>
<path d="M336,48h16v16h-16V48z" class="pkjjlQGI_4"></path>
<path d="M336,24h16v16h-16V24z" class="pkjjlQGI_5"></path>
<path d="M312,48h16v16h-16V48z" class="pkjjlQGI_6"></path>
<path d="M224,312h32v16h-32V312z" class="pkjjlQGI_7"></path>
<path d="M264,312h16v16h-16V312z" class="pkjjlQGI_8"></path>
<path d="M200,312h16v16h-16V312z" class="pkjjlQGI_9"></path>
<style data-made-with="vivus-instant">.pkjjlQGI_0{stroke-dasharray:302 304;stroke-dashoffset:303;animation:pkjjlQGI_draw_0 9800ms linear 0ms infinite,pkjjlQGI_fade 9800ms linear 0ms infinite;}.pkjjlQGI_1{stroke-dasharray:7256 7258;stroke-dashoffset:7257;animation:pkjjlQGI_draw_1 9800ms linear 0ms infinite,pkjjlQGI_fade 9800ms linear 0ms infinite;}.pkjjlQGI_2{stroke-dasharray:302 304;stroke-dashoffset:303;animation:pkjjlQGI_draw_2 9800ms linear 0ms infinite,pkjjlQGI_fade 9800ms linear 0ms infinite;}.pkjjlQGI_3{stroke-dasharray:533 535;stroke-dashoffset:534;animation:pkjjlQGI_draw_3 9800ms linear 0ms infinite,pkjjlQGI_fade 9800ms linear 0ms infinite;}.pkjjlQGI_4{stroke-dasharray:64 66;stroke-dashoffset:65;animation:pkjjlQGI_draw_4 9800ms linear 0ms infinite,pkjjlQGI_fade 9800ms linear 0ms infinite;}.pkjjlQGI_5{stroke-dasharray:64 66;stroke-dashoffset:65;animation:pkjjlQGI_draw_5 9800ms linear 0ms infinite,pkjjlQGI_fade 9800ms linear 0ms infinite;}.pkjjlQGI_6{stroke-dasharray:64 66;stroke-dashoffset:65;animation:pkjjlQGI_draw_6 9800ms linear 0ms infinite,pkjjlQGI_fade 9800ms linear 0ms infinite;}.pkjjlQGI_7{stroke-dasharray:96 98;stroke-dashoffset:97;animation:pkjjlQGI_draw_7 9800ms linear 0ms infinite,pkjjlQGI_fade 9800ms linear 0ms infinite;}.pkjjlQGI_8{stroke-dasharray:64 66;stroke-dashoffset:65;animation:pkjjlQGI_draw_8 9800ms linear 0ms infinite,pkjjlQGI_fade 9800ms linear 0ms infinite;}.pkjjlQGI_9{stroke-dasharray:64 66;stroke-dashoffset:65;animation:pkjjlQGI_draw_9 9800ms linear 0ms infinite,pkjjlQGI_fade 9800ms linear 0ms infinite;}@keyframes pkjjlQGI_draw{100%{stroke-dashoffset:0;}}@keyframes pkjjlQGI_fade{0%{stroke-opacity:1;}95.91836734693878%{stroke-opacity:1;}100%{stroke-opacity:0;}}@keyframes pkjjlQGI_draw_0{8.16326530612245%{stroke-dashoffset: 303}10.126558844424492%{ stroke-dashoffset: 0;}100%{ stroke-dashoffset: 0;}}@keyframes pkjjlQGI_draw_1{10.126558844424492%{stroke-dashoffset: 7257}57.14841101425262%{ stroke-dashoffset: 0;}100%{ stroke-dashoffset: 0;}}@keyframes pkjjlQGI_draw_2{57.14841101425263%{stroke-dashoffset: 303}59.11170455255467%{ stroke-dashoffset: 0;}100%{ stroke-dashoffset: 0;}}@keyframes pkjjlQGI_draw_3{59.11170455255467%{stroke-dashoffset: 534}62.57176643193847%{ stroke-dashoffset: 0;}100%{ stroke-dashoffset: 0;}}@keyframes pkjjlQGI_draw_4{62.57176643193847%{stroke-dashoffset: 65}62.99293501276234%{ stroke-dashoffset: 0;}100%{ stroke-dashoffset: 0;}}@keyframes pkjjlQGI_draw_5{62.99293501276234%{stroke-dashoffset: 65}63.41410359358621%{ stroke-dashoffset: 0;}100%{ stroke-dashoffset: 0;}}@keyframes pkjjlQGI_draw_6{63.414103593586205%{stroke-dashoffset: 65}63.83527217441007%{ stroke-dashoffset: 0;}100%{ stroke-dashoffset: 0;}}@keyframes pkjjlQGI_draw_7{63.83527217441007%{stroke-dashoffset: 97}64.46378528733186%{ stroke-dashoffset: 0;}100%{ stroke-dashoffset: 0;}}@keyframes pkjjlQGI_draw_8{64.46378528733186%{stroke-dashoffset: 65}64.88495386815572%{ stroke-dashoffset: 0;}100%{ stroke-dashoffset: 0;}}@keyframes pkjjlQGI_draw_9{64.88495386815572%{stroke-dashoffset: 65}65.3061224489796%{ stroke-dashoffset: 0;}100%{ stroke-dashoffset: 0;}}</style></svg>
