<!--?xml version="1.0" encoding="utf-8"?-->
<!-- Generator: Adobe Illustrator 16.0.0, SVG Export Plug-In . SVG Version: 6.00 Build 0)  -->

<svg version="1.1" id="圖層_1" xmlns="http://www.w3.org/2000/svg" xmlns:xlink="http://www.w3.org/1999/xlink" x="0px" y="0px" width="321px" height="318px" viewBox="83.5 100.5 321 318" enable-background="new 83.5 100.5 321 318" xml:space="preserve" style="">
<path fill="none" stroke="#6D6D6D" stroke-width="5" stroke-miterlimit="10" d="M340.785,205.118
	c-10.475,0-18.967,8.492-18.967,18.967c0,10.474,8.492,18.966,18.967,18.966c10.474,0,18.967-8.493,18.967-18.966
	C359.752,213.61,351.259,205.118,340.785,205.118z M340.785,233.567c-5.238,0-9.484-4.246-9.484-9.483
	c0-5.237,4.246-9.484,9.484-9.484c5.236,0,9.482,4.247,9.482,9.484C350.267,229.321,346.021,233.567,340.785,233.567z" class="vMVUQCTQ_0"></path>
<path fill="none" stroke="#6D6D6D" stroke-width="5" stroke-miterlimit="10" d="M132.151,195.634c0-7.856-6.37-14.225-14.226-14.225
	h-9.483c-2.619,0-4.742,2.123-4.742,4.742v56.9c0,2.618,2.123,4.742,4.742,4.742h9.483c7.856,0,14.226-6.369,14.226-14.226h33.191
	v9.483c0,2.618,2.123,4.742,4.742,4.742h18.966c2.619,0,4.742-2.124,4.742-4.742v-9.483h4.742v61.642c0-2.174-1.479-4.07-3.589-4.6
	l-6.126-1.531l3.249-5.415c1.118-1.866,0.824-4.255-0.718-5.795l-13.408-13.407c-1.54-1.543-3.929-1.836-5.795-0.719l-5.416,3.248
	l-1.53-6.126c-0.53-2.108-2.426-3.589-4.6-3.589h-18.967c-2.174,0-4.07,1.48-4.601,3.589l-1.53,6.126l-5.415-3.248
	c-1.866-1.117-4.255-0.824-5.795,0.719l-13.408,13.407c-1.542,1.54-1.836,3.929-0.717,5.795l3.248,5.415l-6.126,1.531
	c-2.109,0.529-3.589,2.426-3.589,4.6v18.967c0,2.174,1.479,4.07,3.589,4.6l6.126,1.531l-3.248,5.416
	c-1.119,1.865-0.824,4.256,0.717,5.795l13.408,13.408c1.54,1.541,3.929,1.836,5.795,0.717l5.415-3.248l1.53,6.125
	c0.531,2.109,2.427,3.59,4.601,3.59h18.967c2.174,0,4.07-1.48,4.6-3.59l1.53-6.125l5.416,3.248c1.866,1.119,4.255,0.824,5.795-0.717
	l13.408-13.408c1.542-1.539,1.836-3.93,0.718-5.795l-3.249-5.416l6.126-1.531c2.109-0.529,3.589-2.426,3.589-4.6v37.934
	c0,26.188,21.229,47.416,47.417,47.416c26.188,0,47.416-21.229,47.416-47.416v-18.967h4.742v9.482c0,2.619,2.123,4.742,4.742,4.742
	h18.967c2.618,0,4.741-2.123,4.741-4.742v-9.482h33.192c0,7.855,6.368,14.225,14.225,14.225h9.482c2.619,0,4.742-2.123,4.742-4.742
	v-56.899c0-2.618-2.123-4.741-4.742-4.741h-9.482c-7.856,0-14.225,6.369-14.225,14.225h-33.192v-9.483
	c0-2.618-2.123-4.741-4.741-4.741h-18.967c-2.619,0-4.742,2.123-4.742,4.741v9.483h-4.742v-61.642c0,2.174,1.48,4.07,3.59,4.601
	l6.125,1.531l-3.247,5.415c-1.119,1.867-0.824,4.256,0.717,5.796l13.408,13.407c1.539,1.543,3.929,1.836,5.795,0.719l5.415-3.25
	l1.531,6.127c0.53,2.109,2.426,3.588,4.6,3.588h18.967c2.174,0,4.07-1.479,4.601-3.588l1.53-6.127l5.415,3.25
	c1.867,1.117,4.256,0.824,5.796-0.719l13.407-13.407c1.542-1.54,1.836-3.929,0.718-5.796l-3.248-5.415l6.126-1.531
	c2.109-0.53,3.589-2.427,3.589-4.601v-18.967c0-2.174-1.479-4.07-3.589-4.6l-6.126-1.531l3.248-5.415
	c1.118-1.866,0.824-4.255-0.718-5.795l-13.407-13.408c-1.54-1.542-3.929-1.836-5.796-0.717l-5.415,3.248l-1.53-6.126
	c-0.53-2.109-2.427-3.589-4.601-3.589h-18.967c-2.174,0-4.069,1.479-4.6,3.589l-1.531,6.126l-5.415-3.248
	c-1.866-1.119-4.256-0.824-5.795,0.717l-13.408,13.408c-1.541,1.54-1.836,3.929-0.717,5.795l3.247,5.415L296.957,210
	c-2.109,0.53-3.59,2.426-3.59,4.6v-42.674h28.451c2.618,0,4.741-2.124,4.741-4.742V129.25c0-7.855-6.369-14.225-14.226-14.225
	H179.568c-7.855,0-14.225,6.37-14.225,14.225v37.934c0,2.619,2.123,4.742,4.742,4.742h28.45v23.708h-4.742v-9.483
	c0-2.619-2.123-4.742-4.742-4.742h-18.966c-2.619,0-4.742,2.123-4.742,4.742v9.483H132.151 M122.668,233.567
	c0,2.619-2.123,4.742-4.742,4.742h-4.741v-47.417h4.741c2.619,0,4.742,2.123,4.742,4.742V233.567z M132.151,224.084v-18.967h33.191
	v18.967H132.151z M184.309,238.309h-9.483v-47.417h9.483V238.309z M189.051,310.475l-8.745,2.186
	c-1.456,0.363-2.655,1.396-3.229,2.785c-0.577,1.389-0.458,2.965,0.315,4.254l4.638,7.729l-8.152,8.176l-7.729-4.637
	c-1.287-0.773-2.866-0.893-4.255-0.314c-1.387,0.572-2.422,1.771-2.785,3.229l-2.209,8.744h-11.563l-2.186-8.744
	c-0.363-1.457-1.396-2.656-2.785-3.229c-1.389-0.578-2.966-0.459-4.255,0.314l-7.729,4.637l-8.175-8.152l4.637-7.729
	c0.773-1.287,0.891-2.865,0.315-4.256c-0.574-1.385-1.774-2.42-3.23-2.783l-8.745-2.209v-11.563l8.745-2.186
	c1.456-0.365,2.656-1.396,3.23-2.787c0.576-1.389,0.458-2.965-0.315-4.254l-4.637-7.729l8.175-8.176l7.729,4.638
	c1.29,0.773,2.866,0.892,4.255,0.315c1.389-0.574,2.422-1.774,2.785-3.23l2.186-8.745h11.563l2.186,8.745
	c0.364,1.456,1.396,2.656,2.785,3.23c1.39,0.576,2.966,0.458,4.256-0.315l7.728-4.638l8.176,8.176l-4.638,7.729
	c-0.773,1.289-0.892,2.865-0.315,4.254c0.574,1.391,1.773,2.422,3.229,2.787l8.745,2.186V310.475z M369.234,295.209
	c0-2.619,2.123-4.742,4.742-4.742h4.741v47.418h-4.741c-2.619,0-4.742-2.123-4.742-4.742V295.209z M359.752,304.691v18.967h-33.192
	v-18.967H359.752z M307.593,290.467h9.483v47.418h-9.483V290.467z M174.826,129.25c0-2.618,2.123-4.741,4.742-4.741h132.766
	c2.619,0,4.742,2.123,4.742,4.741v33.192h-142.25V129.25z M193.793,224.084v-18.967h4.742v18.967H193.793z M283.885,352.109
	c0,20.951-16.982,37.934-37.934,37.934s-37.934-16.982-37.934-37.934V171.926h75.867V352.109z M298.109,304.691v18.967h-4.742
	v-18.967H298.109z M378.718,229.866l-8.744,2.185c-1.457,0.364-2.656,1.396-3.23,2.786c-0.576,1.389-0.458,2.966,0.314,4.256
	l4.638,7.728l-8.151,8.175l-7.729-4.638c-1.286-0.773-2.865-0.891-4.255-0.314c-1.387,0.574-2.422,1.773-2.785,3.23l-2.209,8.744
	h-11.563l-2.186-8.744c-0.362-1.457-1.396-2.656-2.785-3.23c-1.39-0.576-2.965-0.459-4.255,0.314l-7.729,4.638l-8.176-8.151
	l4.638-7.729c0.773-1.288,0.892-2.867,0.314-4.256c-0.573-1.387-1.773-2.422-3.229-2.785l-8.744-2.208v-11.563l8.744-2.185
	c1.456-0.363,2.656-1.396,3.229-2.786c0.577-1.389,0.459-2.965-0.314-4.255l-4.638-7.729l8.176-8.175l7.729,4.637
	c1.29,0.773,2.865,0.892,4.255,0.315c1.39-0.574,2.423-1.773,2.785-3.23l2.186-8.745h11.563l2.186,8.745
	c0.364,1.457,1.396,2.656,2.786,3.23c1.389,0.577,2.966,0.458,4.256-0.315l7.728-4.637l8.175,8.152l-4.638,7.729
	c-0.772,1.287-0.891,2.866-0.314,4.255c0.574,1.386,1.773,2.422,3.23,2.786l8.744,2.208V229.866z" class="vMVUQCTQ_1"></path>
<path fill="none" stroke="#6D6D6D" stroke-width="5" stroke-miterlimit="10" d="M151.118,285.726
	c-10.475,0-18.967,8.493-18.967,18.966c0,10.477,8.492,18.967,18.967,18.967c10.474,0,18.966-8.49,18.966-18.967
	C170.084,294.219,161.592,285.726,151.118,285.726z M151.118,314.176c-5.237,0-9.483-4.246-9.483-9.484
	c0-5.236,4.246-9.482,9.483-9.482c5.237,0,9.483,4.246,9.483,9.482C160.601,309.93,156.355,314.176,151.118,314.176z" class="vMVUQCTQ_2"></path>
<path fill="none" stroke="#6D6D6D" stroke-width="5" stroke-miterlimit="10" d="M241.73,221.917
	c-3.253,6.339-19.488,38.521-19.488,49.583c0,13.094,10.616,23.709,23.708,23.709s23.709-10.615,23.709-23.709
	c0-11.062-16.234-43.244-19.488-49.583c-0.898-1.473-2.496-2.371-4.221-2.371S242.629,220.445,241.73,221.917z M245.951,285.726
	c-7.856,0-14.225-6.369-14.225-14.226c0-5.551,7.587-23.002,14.225-36.771c6.638,13.751,14.225,31.22,14.225,36.771
	C260.176,279.356,253.806,285.726,245.951,285.726z" class="vMVUQCTQ_3"></path>
<path fill="none" stroke="#6D6D6D" stroke-width="5" stroke-miterlimit="10" d="M302.851,143.476h9.482v9.483h-9.482V143.476z" class="vMVUQCTQ_4"></path>
<path fill="none" stroke="#6D6D6D" stroke-width="5" stroke-miterlimit="10" d="M302.851,129.25h9.482v9.483h-9.482V129.25z" class="vMVUQCTQ_5"></path>
<path fill="none" stroke="#6D6D6D" stroke-width="5" stroke-miterlimit="10" d="M288.627,143.476h9.482v9.483h-9.482V143.476z" class="vMVUQCTQ_6"></path>
<path fill="none" stroke="#6D6D6D" stroke-width="5" stroke-miterlimit="10" d="M236.468,299.951h18.965v9.482h-18.965V299.951z" class="vMVUQCTQ_7"></path>
<path fill="none" stroke="#6D6D6D" stroke-width="5" stroke-miterlimit="10" d="M260.176,299.951h9.484v9.482h-9.484V299.951z" class="vMVUQCTQ_8"></path>
<path fill="none" stroke="#6D6D6D" stroke-width="5" stroke-miterlimit="10" d="M222.242,299.951h9.484v9.482h-9.484V299.951z" class="vMVUQCTQ_9"></path>
<path fill="none" stroke="#51C2E9" stroke-width="5" stroke-miterlimit="10" d="M346.377,205.969
	c-10.475,0-18.967,8.492-18.967,18.967c0,10.474,8.492,18.965,18.967,18.965c10.474,0,18.967-8.491,18.967-18.965
	C365.344,214.461,356.85,205.969,346.377,205.969z M346.377,234.418c-5.238,0-9.484-4.246-9.484-9.483
	c0-5.237,4.246-9.484,9.484-9.484c5.236,0,9.482,4.247,9.482,9.484C355.859,230.172,351.613,234.418,346.377,234.418z" class="vMVUQCTQ_10"></path>
<path fill="none" stroke="#51C2E9" stroke-width="5" stroke-miterlimit="10" d="M137.744,196.485c0-7.856-6.37-14.225-14.226-14.225
	h-9.483c-2.619,0-4.742,2.123-4.742,4.742V243.9c0,2.618,2.123,4.742,4.742,4.742h9.483c7.856,0,14.226-6.369,14.226-14.224h33.191
	v9.482c0,2.618,2.123,4.742,4.742,4.742h18.966c2.619,0,4.742-2.124,4.742-4.742v-9.482h4.742v61.64c0-2.174-1.479-4.07-3.589-4.6
	l-6.126-1.531l3.249-5.415c1.118-1.866,0.824-4.255-0.718-5.795l-13.408-13.407c-1.54-1.543-3.929-1.836-5.795-0.719l-5.416,3.248
	l-1.53-6.126c-0.53-2.108-2.426-3.589-4.6-3.589h-18.967c-2.174,0-4.07,1.48-4.601,3.589l-1.53,6.126l-5.415-3.248
	c-1.866-1.117-4.255-0.824-5.795,0.719l-13.408,13.407c-1.542,1.54-1.836,3.929-0.717,5.795l3.248,5.415l-6.126,1.531
	c-2.109,0.529-3.589,2.426-3.589,4.6v18.967c0,2.174,1.479,4.07,3.589,4.6l6.126,1.531l-3.248,5.416
	c-1.119,1.865-0.824,4.256,0.717,5.795l13.408,13.408c1.54,1.541,3.929,1.836,5.795,0.717l5.415-3.248l1.53,6.125
	c0.531,2.109,2.427,3.59,4.601,3.59h18.967c2.174,0,4.07-1.48,4.6-3.59l1.53-6.125l5.416,3.248c1.866,1.119,4.255,0.824,5.795-0.717
	l13.408-13.408c1.542-1.539,1.836-3.93,0.718-5.795l-3.249-5.416l6.126-1.531c2.109-0.529,3.589-2.426,3.589-4.6v37.934
	c0,26.188,21.229,47.416,47.415,47.416c26.188,0,47.416-21.229,47.416-47.416v-18.967h4.742v9.482c0,2.619,2.123,4.742,4.742,4.742
	h18.967c2.618,0,4.741-2.123,4.741-4.742v-9.482h33.192c0,7.855,6.368,14.225,14.225,14.225h9.482c2.619,0,4.742-2.123,4.742-4.742
	v-56.899c0-2.618-2.123-4.741-4.742-4.741h-9.482c-7.856,0-14.225,6.369-14.225,14.225h-33.192v-9.483
	c0-2.618-2.123-4.741-4.741-4.741h-18.967c-2.619,0-4.742,2.123-4.742,4.741v9.483h-4.742v-61.64c0,2.174,1.48,4.07,3.59,4.601
	l6.125,1.531l-3.247,5.413c-1.119,1.867-0.824,4.256,0.717,5.796l13.408,13.407c1.539,1.543,3.929,1.836,5.795,0.719l5.415-3.25
	l1.531,6.127c0.53,2.109,2.426,3.588,4.6,3.588h18.967c2.174,0,4.07-1.479,4.601-3.588l1.53-6.127l5.415,3.25
	c1.867,1.117,4.256,0.824,5.796-0.719l13.407-13.407c1.542-1.54,1.836-3.929,0.718-5.796l-3.248-5.413l6.126-1.531
	c2.109-0.53,3.589-2.427,3.589-4.601v-18.967c0-2.174-1.479-4.07-3.589-4.6l-6.126-1.531l3.248-5.415
	c1.118-1.866,0.824-4.255-0.718-5.795l-13.407-13.408c-1.54-1.542-3.929-1.836-5.796-0.717l-5.415,3.248l-1.53-6.126
	c-0.53-2.109-2.427-3.589-4.601-3.589h-18.967c-2.174,0-4.069,1.479-4.6,3.589l-1.531,6.126l-5.415-3.248
	c-1.866-1.119-4.256-0.824-5.795,0.717l-13.408,13.408c-1.541,1.54-1.836,3.929-0.717,5.795l3.247,5.415l-6.125,1.531
	c-2.109,0.53-3.59,2.426-3.59,4.6v-42.674h28.451c2.618,0,4.741-2.124,4.741-4.742v-37.934c0-7.855-6.369-14.225-14.226-14.225
	H185.161c-7.855,0-14.225,6.37-14.225,14.225v37.934c0,2.619,2.123,4.742,4.742,4.742h28.45v23.708h-4.742v-9.483
	c0-2.619-2.123-4.742-4.742-4.742h-18.966c-2.619,0-4.742,2.123-4.742,4.742v9.483H137.744 M128.261,234.418
	c0,2.619-2.123,4.742-4.742,4.742h-4.741v-47.417h4.741c2.619,0,4.742,2.123,4.742,4.742V234.418z M137.744,224.936v-18.967h33.191
	v18.967H137.744z M189.903,239.16h-9.483v-47.417h9.483V239.16z M194.644,311.324l-8.745,2.186
	c-1.456,0.363-2.655,1.396-3.229,2.785c-0.577,1.389-0.458,2.965,0.315,4.254l4.638,7.729l-8.152,8.176l-7.729-4.637
	c-1.287-0.773-2.866-0.893-4.255-0.314c-1.387,0.572-2.422,1.771-2.785,3.229l-2.209,8.744h-11.563l-2.186-8.744
	c-0.363-1.457-1.396-2.656-2.785-3.229c-1.389-0.578-2.966-0.459-4.255,0.314l-7.729,4.637l-8.175-8.152l4.637-7.729
	c0.773-1.287,0.891-2.865,0.315-4.256c-0.574-1.385-1.774-2.42-3.23-2.783l-8.745-2.209v-11.563l8.745-2.186
	c1.456-0.365,2.656-1.396,3.23-2.787c0.576-1.389,0.458-2.965-0.315-4.254l-4.637-7.729l8.175-8.176l7.729,4.638
	c1.29,0.773,2.866,0.892,4.255,0.315c1.389-0.574,2.422-1.774,2.785-3.23l2.186-8.745h11.563l2.186,8.745
	c0.364,1.456,1.396,2.656,2.785,3.23c1.39,0.576,2.966,0.458,4.256-0.315l7.728-4.638l8.176,8.176l-4.638,7.729
	c-0.773,1.289-0.892,2.865-0.315,4.254c0.574,1.391,1.773,2.422,3.229,2.787l8.745,2.186V311.324z M374.826,296.059
	c0-2.619,2.123-4.742,4.742-4.742h4.741v47.418h-4.741c-2.619,0-4.742-2.123-4.742-4.742V296.059z M365.344,305.541v18.967h-33.192
	v-18.967H365.344z M313.184,291.316h9.483v47.418h-9.483V291.316z M180.419,130.102c0-2.618,2.123-4.741,4.742-4.741h132.765
	c2.619,0,4.742,2.123,4.742,4.741v33.192H180.419V130.102z M199.386,224.936v-18.967h4.742v18.967H199.386z M289.476,352.959
	c0,20.951-16.982,37.934-37.934,37.934c-20.95,0-37.932-16.982-37.932-37.934V172.777h75.866V352.959z M303.701,305.541v18.967
	h-4.742v-18.967H303.701z M384.309,230.717l-8.744,2.185c-1.457,0.364-2.656,1.396-3.23,2.786c-0.576,1.389-0.458,2.966,0.314,4.256
	l4.638,7.727l-8.151,8.175l-7.729-4.638c-1.286-0.773-2.865-0.891-4.255-0.314c-1.387,0.574-2.422,1.773-2.785,3.23l-2.209,8.744
	h-11.563l-2.186-8.744c-0.362-1.457-1.396-2.656-2.785-3.23c-1.39-0.576-2.965-0.459-4.255,0.314l-7.729,4.638l-8.176-8.151
	l4.638-7.727c0.773-1.288,0.892-2.867,0.314-4.256c-0.573-1.387-1.773-2.422-3.229-2.785l-8.744-2.208v-11.563l8.744-2.185
	c1.456-0.363,2.656-1.396,3.229-2.786c0.577-1.389,0.459-2.965-0.314-4.255l-4.638-7.729l8.176-8.175l7.729,4.637
	c1.29,0.773,2.865,0.892,4.255,0.315c1.39-0.574,2.423-1.773,2.785-3.23l2.186-8.745h11.563l2.186,8.745
	c0.364,1.457,1.396,2.656,2.786,3.23c1.389,0.577,2.966,0.458,4.256-0.315l7.728-4.637l8.175,8.152l-4.638,7.729
	c-0.772,1.287-0.891,2.866-0.314,4.255c0.574,1.386,1.773,2.422,3.23,2.786l8.744,2.208V230.717z" class="vMVUQCTQ_11"></path>
<path fill="none" stroke="#51C2E9" stroke-width="5" stroke-miterlimit="10" d="M156.711,286.575
	c-10.475,0-18.967,8.493-18.967,18.966c0,10.477,8.492,18.967,18.967,18.967c10.474,0,18.966-8.49,18.966-18.967
	C175.677,295.068,167.185,286.575,156.711,286.575z M156.711,315.025c-5.237,0-9.483-4.246-9.483-9.484
	c0-5.236,4.246-9.482,9.483-9.482c5.237,0,9.483,4.246,9.483,9.482C166.195,310.779,161.948,315.025,156.711,315.025z" class="vMVUQCTQ_12"></path>
<path fill="none" stroke="#51C2E9" stroke-width="5" stroke-miterlimit="10" d="M247.322,222.769
	c-3.254,6.339-19.486,38.52-19.486,49.581c0,13.094,10.616,23.709,23.707,23.709c13.093,0,23.709-10.615,23.709-23.709
	c0-11.062-16.234-43.242-19.488-49.581c-0.898-1.473-2.496-2.371-4.221-2.371S248.22,221.296,247.322,222.769z M251.543,286.575
	c-7.855,0-14.223-6.369-14.223-14.226c0-5.551,7.585-23.002,14.223-36.769c6.638,13.75,14.225,31.218,14.225,36.769
	C265.767,280.206,259.398,286.575,251.543,286.575z" class="vMVUQCTQ_13"></path>
<path fill="none" stroke="#51C2E9" stroke-width="5" stroke-miterlimit="10" d="M308.443,144.327h9.482v9.483h-9.482V144.327z" class="vMVUQCTQ_14"></path>
<path fill="none" stroke="#51C2E9" stroke-width="5" stroke-miterlimit="10" d="M308.443,130.102h9.482v9.483h-9.482V130.102z" class="vMVUQCTQ_15"></path>
<path fill="none" stroke="#51C2E9" stroke-width="5" stroke-miterlimit="10" d="M294.219,144.327h9.482v9.483h-9.482V144.327z" class="vMVUQCTQ_16"></path>
<path fill="none" stroke="#51C2E9" stroke-width="5" stroke-miterlimit="10" d="M242.06,300.801h18.965v9.482H242.06V300.801z" class="vMVUQCTQ_17"></path>
<path fill="none" stroke="#51C2E9" stroke-width="5" stroke-miterlimit="10" d="M265.767,300.801h9.484v9.482h-9.484V300.801z" class="vMVUQCTQ_18"></path>
<path fill="none" stroke="#51C2E9" stroke-width="5" stroke-miterlimit="10" d="M227.836,300.801h9.484v9.482h-9.484V300.801z" class="vMVUQCTQ_19"></path>
<style data-made-with="vivus-instant">.vMVUQCTQ_0{stroke-dasharray:179 181;stroke-dashoffset:180;animation:vMVUQCTQ_draw_0 8200ms linear 0ms infinite,vMVUQCTQ_fade 8200ms linear 0ms infinite;}.vMVUQCTQ_1{stroke-dasharray:4301 4303;stroke-dashoffset:4302;animation:vMVUQCTQ_draw_1 8200ms linear 0ms infinite,vMVUQCTQ_fade 8200ms linear 0ms infinite;}.vMVUQCTQ_2{stroke-dasharray:179 181;stroke-dashoffset:180;animation:vMVUQCTQ_draw_2 8200ms linear 0ms infinite,vMVUQCTQ_fade 8200ms linear 0ms infinite;}.vMVUQCTQ_3{stroke-dasharray:316 318;stroke-dashoffset:317;animation:vMVUQCTQ_draw_3 8200ms linear 0ms infinite,vMVUQCTQ_fade 8200ms linear 0ms infinite;}.vMVUQCTQ_4{stroke-dasharray:38 40;stroke-dashoffset:39;animation:vMVUQCTQ_draw_4 8200ms linear 0ms infinite,vMVUQCTQ_fade 8200ms linear 0ms infinite;}.vMVUQCTQ_5{stroke-dasharray:38 40;stroke-dashoffset:39;animation:vMVUQCTQ_draw_5 8200ms linear 0ms infinite,vMVUQCTQ_fade 8200ms linear 0ms infinite;}.vMVUQCTQ_6{stroke-dasharray:38 40;stroke-dashoffset:39;animation:vMVUQCTQ_draw_6 8200ms linear 0ms infinite,vMVUQCTQ_fade 8200ms linear 0ms infinite;}.vMVUQCTQ_7{stroke-dasharray:57 59;stroke-dashoffset:58;animation:vMVUQCTQ_draw_7 8200ms linear 0ms infinite,vMVUQCTQ_fade 8200ms linear 0ms infinite;}.vMVUQCTQ_8{stroke-dasharray:38 40;stroke-dashoffset:39;animation:vMVUQCTQ_draw_8 8200ms linear 0ms infinite,vMVUQCTQ_fade 8200ms linear 0ms infinite;}.vMVUQCTQ_9{stroke-dasharray:38 40;stroke-dashoffset:39;animation:vMVUQCTQ_draw_9 8200ms linear 0ms infinite,vMVUQCTQ_fade 8200ms linear 0ms infinite;}.vMVUQCTQ_10{stroke-dasharray:179 181;stroke-dashoffset:180;animation:vMVUQCTQ_draw_10 8200ms linear 0ms infinite,vMVUQCTQ_fade 8200ms linear 0ms infinite;}.vMVUQCTQ_11{stroke-dasharray:4301 4303;stroke-dashoffset:4302;animation:vMVUQCTQ_draw_11 8200ms linear 0ms infinite,vMVUQCTQ_fade 8200ms linear 0ms infinite;}.vMVUQCTQ_12{stroke-dasharray:179 181;stroke-dashoffset:180;animation:vMVUQCTQ_draw_12 8200ms linear 0ms infinite,vMVUQCTQ_fade 8200ms linear 0ms infinite;}.vMVUQCTQ_13{stroke-dasharray:316 318;stroke-dashoffset:317;animation:vMVUQCTQ_draw_13 8200ms linear 0ms infinite,vMVUQCTQ_fade 8200ms linear 0ms infinite;}.vMVUQCTQ_14{stroke-dasharray:38 40;stroke-dashoffset:39;animation:vMVUQCTQ_draw_14 8200ms linear 0ms infinite,vMVUQCTQ_fade 8200ms linear 0ms infinite;}.vMVUQCTQ_15{stroke-dasharray:38 40;stroke-dashoffset:39;animation:vMVUQCTQ_draw_15 8200ms linear 0ms infinite,vMVUQCTQ_fade 8200ms linear 0ms infinite;}.vMVUQCTQ_16{stroke-dasharray:38 40;stroke-dashoffset:39;animation:vMVUQCTQ_draw_16 8200ms linear 0ms infinite,vMVUQCTQ_fade 8200ms linear 0ms infinite;}.vMVUQCTQ_17{stroke-dasharray:57 59;stroke-dashoffset:58;animation:vMVUQCTQ_draw_17 8200ms linear 0ms infinite,vMVUQCTQ_fade 8200ms linear 0ms infinite;}.vMVUQCTQ_18{stroke-dasharray:38 40;stroke-dashoffset:39;animation:vMVUQCTQ_draw_18 8200ms linear 0ms infinite,vMVUQCTQ_fade 8200ms linear 0ms infinite;}.vMVUQCTQ_19{stroke-dasharray:38 40;stroke-dashoffset:39;animation:vMVUQCTQ_draw_19 8200ms linear 0ms infinite,vMVUQCTQ_fade 8200ms linear 0ms infinite;}@keyframes vMVUQCTQ_draw{100%{stroke-dashoffset:0;}}@keyframes vMVUQCTQ_fade{0%{stroke-opacity:1;}95.1219512195122%{stroke-opacity:1;}100%{stroke-opacity:0;}}@keyframes vMVUQCTQ_draw_0{9.75609756097561%{stroke-dashoffset: 180}42.27642276422765%{ stroke-dashoffset: 0;}100%{ stroke-dashoffset: 0;}}@keyframes vMVUQCTQ_draw_1{10.611895592640137%{stroke-dashoffset: 4302}43.132220795892174%{ stroke-dashoffset: 0;}100%{ stroke-dashoffset: 0;}}@keyframes vMVUQCTQ_draw_2{11.467693624304665%{stroke-dashoffset: 180}43.988018827556694%{ stroke-dashoffset: 0;}100%{ stroke-dashoffset: 0;}}@keyframes vMVUQCTQ_draw_3{12.32349165596919%{stroke-dashoffset: 317}44.84381685922123%{ stroke-dashoffset: 0;}100%{ stroke-dashoffset: 0;}}@keyframes vMVUQCTQ_draw_4{13.17928968763372%{stroke-dashoffset: 39}45.699614890885755%{ stroke-dashoffset: 0;}100%{ stroke-dashoffset: 0;}}@keyframes vMVUQCTQ_draw_5{14.035087719298245%{stroke-dashoffset: 39}46.55541292255028%{ stroke-dashoffset: 0;}100%{ stroke-dashoffset: 0;}}@keyframes vMVUQCTQ_draw_6{14.89088575096277%{stroke-dashoffset: 39}47.41121095421481%{ stroke-dashoffset: 0;}100%{ stroke-dashoffset: 0;}}@keyframes vMVUQCTQ_draw_7{15.746683782627299%{stroke-dashoffset: 58}48.267008985879336%{ stroke-dashoffset: 0;}100%{ stroke-dashoffset: 0;}}@keyframes vMVUQCTQ_draw_8{16.602481814291828%{stroke-dashoffset: 39}49.12280701754386%{ stroke-dashoffset: 0;}100%{ stroke-dashoffset: 0;}}@keyframes vMVUQCTQ_draw_9{17.45827984595635%{stroke-dashoffset: 39}49.97860504920838%{ stroke-dashoffset: 0;}100%{ stroke-dashoffset: 0;}}@keyframes vMVUQCTQ_draw_10{18.31407787762088%{stroke-dashoffset: 180}50.83440308087292%{ stroke-dashoffset: 0;}100%{ stroke-dashoffset: 0;}}@keyframes vMVUQCTQ_draw_11{19.16987590928541%{stroke-dashoffset: 4302}51.69020111253745%{ stroke-dashoffset: 0;}100%{ stroke-dashoffset: 0;}}@keyframes vMVUQCTQ_draw_12{20.025673940949932%{stroke-dashoffset: 180}52.54599914420196%{ stroke-dashoffset: 0;}100%{ stroke-dashoffset: 0;}}@keyframes vMVUQCTQ_draw_13{20.881471972614463%{stroke-dashoffset: 317}53.401797175866506%{ stroke-dashoffset: 0;}100%{ stroke-dashoffset: 0;}}@keyframes vMVUQCTQ_draw_14{21.737270004278987%{stroke-dashoffset: 39}54.257595207531025%{ stroke-dashoffset: 0;}100%{ stroke-dashoffset: 0;}}@keyframes vMVUQCTQ_draw_15{22.593068035943517%{stroke-dashoffset: 39}55.11339323919555%{ stroke-dashoffset: 0;}100%{ stroke-dashoffset: 0;}}@keyframes vMVUQCTQ_draw_16{23.448866067608044%{stroke-dashoffset: 39}55.96919127086009%{ stroke-dashoffset: 0;}100%{ stroke-dashoffset: 0;}}@keyframes vMVUQCTQ_draw_17{24.304664099272568%{stroke-dashoffset: 58}56.8249893025246%{ stroke-dashoffset: 0;}100%{ stroke-dashoffset: 0;}}@keyframes vMVUQCTQ_draw_18{25.160462130937095%{stroke-dashoffset: 39}57.680787334189134%{ stroke-dashoffset: 0;}100%{ stroke-dashoffset: 0;}}@keyframes vMVUQCTQ_draw_19{26.016260162601622%{stroke-dashoffset: 39}58.536585365853654%{ stroke-dashoffset: 0;}100%{ stroke-dashoffset: 0;}}</style></svg>
