<!--?xml version="1.0" encoding="utf-8"?-->
<!-- Generator: Adobe Illustrator 16.0.0, SVG Export Plug-In . SVG Version: 6.00 Build 0)  -->

<svg version="1.1" id="icons" xmlns="http://www.w3.org/2000/svg" xmlns:xlink="http://www.w3.org/1999/xlink" x="0px" y="0px" width="408px" height="353px" viewBox="51.5 75.5 408 353" enable-background="new 51.5 75.5 408 353" xml:space="preserve" style="">
<linearGradient id="SVGID_1_" gradientUnits="userSpaceOnUse" x1="60.9363" y1="256" x2="451.0564" y2="256">
	<stop offset="0" style="stop-color:#77B7E5"></stop>
	<stop offset="0.0851" style="stop-color:#6EB2E2"></stop>
	<stop offset="0.2265" style="stop-color:#54A4DA"></stop>
	<stop offset="0.4057" style="stop-color:#2B8DCD"></stop>
	<stop offset="0.5674" style="stop-color:#0076BF"></stop>
	<stop offset="1" style="stop-color:#004DA1"></stop>
</linearGradient>
<path fill="none" stroke="url(#SVGID_1_)" stroke-width="5" stroke-miterlimit="10" d="M406.45,96.984
	c-23.211,0-42.102,21.239-42.113,47.342v0.006v142.196h-12.044c-3.327,0-6.017,3.024-6.017,6.766v40.529
	c0,3.742,2.689,6.766,6.017,6.766h12.032v6.78c-3.327,0-6.017,3.024-6.017,6.766c0,3.742,2.689,6.767,6.017,6.767v13.532
	c0,3.741,2.688,6.766,6.016,6.766h2.046c-2.689,11.624-12.009,20.258-23.168,20.277c-0.018,0-0.03-0.006-0.042-0.006H99.533
	c-13.253,0-24.041-12.132-24.041-27.037c0-0.048-0.023-0.089-0.023-0.136V157.865c0-8.823,5.065-16.266,12.068-19.06v25.792
	c0,0.026-0.013,0.04-0.013,0.067c0,1.875,0.674,3.566,1.769,4.791c1.089,1.231,2.593,1.989,4.259,1.989
	c0.024,0,0.036-0.014,0.061-0.014h5.956v169.124c0,22.383,16.19,40.584,36.097,40.584c19.907,0,36.097-18.201,36.097-40.584v-169.13
	h6.028v169.125c0,22.382,16.189,40.583,36.097,40.583c19.901,0,36.084-18.201,36.084-40.583V171.424h6.028v169.125
	c0,22.382,16.189,40.583,36.097,40.583c19.908,0,36.097-18.201,36.097-40.583V171.424h5.933c0.023,0,0.035,0.014,0.06,0.014
	c1.66,0,3.164-0.758,4.253-1.983c1.101-1.231,1.775-2.923,1.775-4.797c0-0.027-0.013-0.041-0.013-0.068l0.013-47.308
	c0-11.191-8.099-20.298-18.049-20.298H105.585c-9.951,0-18.048,9.107-18.048,20.298v7.436
	c-13.729,3.133-24.101,16.801-24.101,33.147v216.569c0,0.06,0.03,0.114,0.03,0.169c0.09,22.294,16.225,40.399,36.066,40.399h249.583
	c0.024,0,0.036,0.014,0.061,0.014c17.85,0,32.674-14.654,35.549-33.816h3.67c3.327,0,6.017-3.024,6.017-6.766v-13.532
	c3.32-0.015,6.003-3.031,6.003-6.767c0-3.734-2.683-6.753-6.003-6.766v-6.78h18.048c3.327,0,6.017-3.023,6.017-6.766v-67.661
	c0-3.741-2.689-6.766-6.017-6.766s-6.016,3.024-6.016,6.766v20.366h-12.032V144.333c0-7.456,5.391-13.519,12.02-13.519
	c6.636,0,12.032,6.063,12.032,13.519v40.637c0,3.742,2.689,6.766,6.016,6.766h18.049c3.327,0,6.016-3.024,6.016-6.766v-40.556
	c0-0.027,0.013-0.041,0.013-0.068C448.562,118.236,429.666,96.984,406.45,96.984L406.45,96.984z M159.73,340.549
	c0,14.912-10.793,27.051-24.064,27.051c-13.272,0-24.064-12.139-24.064-27.051V198.461h48.129V340.549z M159.73,184.929h-48.129
	v-13.505h11.906h0.03h24.101c0.024,0,0.036,0.014,0.06,0.014s0.036-0.014,0.06-0.014h11.972V184.929z M129.583,157.892l0.036-6.793
	h12.063v6.793H129.583z M237.939,340.549c0,14.912-10.793,27.051-24.052,27.051c-13.271,0-24.064-12.139-24.064-27.051V198.461
	h48.117V340.549z M237.939,184.929h-48.117v-13.505h11.93h0.03h24.101c0.024,0,0.036,0.014,0.06,0.014
	c0.024,0,0.036-0.014,0.06-0.014h11.936V184.929z M207.828,157.892l0.036-6.793h12.062v6.793H207.828z M316.16,340.549
	c0,14.912-10.793,27.051-24.064,27.051s-24.064-12.139-24.064-27.051V198.461h48.129V340.549z M316.16,184.929h-48.129v-13.505
	h11.966h0.03h24.101c0.024,0,0.036,0.014,0.061,0.014c0.023,0,0.035-0.014,0.06-0.014h11.912V184.929z M286.074,157.892l0.035-6.793
	h12.063v6.793H286.074z M99.569,117.282c0-3.735,2.695-6.766,6.016-6.766h216.579c3.321,0,6.017,3.031,6.017,6.766l-0.012,40.61
	h-17.965v-13.56c0-3.741-2.689-6.766-6.016-6.766h-24.034c-0.012,0-0.018,0-0.03,0c-0.83,0-1.618,0.19-2.334,0.528
	c-0.529,0.251-0.963,0.657-1.396,1.056c-0.156,0.142-0.367,0.224-0.511,0.386c-0.354,0.399-0.578,0.907-0.837,1.38
	c-0.138,0.264-0.354,0.48-0.456,0.765c-0.151,0.406-0.157,0.866-0.241,1.299c-0.085,0.439-0.241,0.846-0.241,1.312l-0.065,13.6
	h-42.083v-13.56c0-3.741-2.689-6.766-6.016-6.766h-24.034c-0.012,0-0.019,0-0.03,0c-0.83,0-1.619,0.19-2.333,0.528
	c-0.53,0.251-0.963,0.657-1.396,1.056c-0.156,0.142-0.367,0.224-0.511,0.386c-0.355,0.399-0.578,0.907-0.837,1.38
	c-0.138,0.264-0.354,0.48-0.457,0.765c-0.15,0.406-0.157,0.866-0.24,1.299c-0.084,0.439-0.241,0.846-0.241,1.312l-0.066,13.6
	h-42.083v-13.559c0-3.742-2.689-6.766-6.016-6.766h-24.034c-0.013,0-0.019,0-0.03,0c-0.831,0-1.619,0.189-2.334,0.527
	c-0.529,0.251-0.962,0.657-1.396,1.056c-0.156,0.142-0.367,0.224-0.511,0.386c-0.355,0.399-0.578,0.907-0.837,1.38
	c-0.139,0.264-0.354,0.48-0.458,0.765c-0.15,0.406-0.156,0.866-0.24,1.299c-0.084,0.439-0.241,0.846-0.241,1.312l-0.066,13.6H99.569
	V117.282z M382.385,347.369h-6.028v-6.78h6.028V347.369z M406.45,300.061v26.996h-48.142v-26.996H406.45z M436.518,178.204h-6.016
	v-6.793h6.016V178.204z M436.518,144.333v13.546h-6.016v-13.546c0-14.912-10.794-27.05-24.064-27.05
	c-13.261,0-24.053,12.138-24.053,27.05v142.196h-6.017V144.346c0-18.654,13.494-33.83,30.081-33.83
	c16.568,0,30.05,15.149,30.074,33.776C436.524,144.306,436.518,144.319,436.518,144.333z" class="fnastAQY_0"></path>
<linearGradient id="SVGID_2_" gradientUnits="userSpaceOnUse" x1="115.1169" y1="259.3828" x2="156.2136" y2="259.3828">
	<stop offset="0" style="stop-color:#77B7E5"></stop>
	<stop offset="0.0851" style="stop-color:#6EB2E2"></stop>
	<stop offset="0.2265" style="stop-color:#54A4DA"></stop>
	<stop offset="0.4057" style="stop-color:#2B8DCD"></stop>
	<stop offset="0.5674" style="stop-color:#0076BF"></stop>
	<stop offset="1" style="stop-color:#004DA1"></stop>
</linearGradient>
<path fill="none" stroke="url(#SVGID_2_)" stroke-width="5" stroke-miterlimit="10" d="M123.633,266.149h24.064
	c3.327,0,6.016-3.025,6.016-6.767s-2.689-6.766-6.016-6.766h-24.064c-3.327,0-6.016,3.024-6.016,6.766
	S120.306,266.149,123.633,266.149z" class="fnastAQY_1"></path>
<linearGradient id="SVGID_3_" gradientUnits="userSpaceOnUse" x1="121.1331" y1="279.6953" x2="150.1975" y2="279.6953">
	<stop offset="0" style="stop-color:#77B7E5"></stop>
	<stop offset="0.0851" style="stop-color:#6EB2E2"></stop>
	<stop offset="0.2265" style="stop-color:#54A4DA"></stop>
	<stop offset="0.4057" style="stop-color:#2B8DCD"></stop>
	<stop offset="0.5674" style="stop-color:#0076BF"></stop>
	<stop offset="1" style="stop-color:#004DA1"></stop>
</linearGradient>
<path fill="none" stroke="url(#SVGID_3_)" stroke-width="5" stroke-miterlimit="10" d="M141.681,272.929h-12.032
	c-3.327,0-6.016,3.024-6.016,6.766s2.689,6.767,6.016,6.767h12.032c3.327,0,6.016-3.025,6.016-6.767
	S145.008,272.929,141.681,272.929z" class="fnastAQY_2"></path>
<linearGradient id="SVGID_4_" gradientUnits="userSpaceOnUse" x1="193.3381" y1="259.3828" x2="234.4343" y2="259.3828">
	<stop offset="0" style="stop-color:#77B7E5"></stop>
	<stop offset="0.0851" style="stop-color:#6EB2E2"></stop>
	<stop offset="0.2265" style="stop-color:#54A4DA"></stop>
	<stop offset="0.4057" style="stop-color:#2B8DCD"></stop>
	<stop offset="0.5674" style="stop-color:#0076BF"></stop>
	<stop offset="1" style="stop-color:#004DA1"></stop>
</linearGradient>
<path fill="none" stroke="url(#SVGID_4_)" stroke-width="5" stroke-miterlimit="10" d="M201.854,266.149h24.064
	c3.327,0,6.016-3.025,6.016-6.767s-2.689-6.766-6.016-6.766h-24.064c-3.327,0-6.016,3.024-6.016,6.766
	S198.527,266.149,201.854,266.149z" class="fnastAQY_3"></path>
<linearGradient id="SVGID_5_" gradientUnits="userSpaceOnUse" x1="199.3542" y1="279.6953" x2="228.4187" y2="279.6953">
	<stop offset="0" style="stop-color:#77B7E5"></stop>
	<stop offset="0.0851" style="stop-color:#6EB2E2"></stop>
	<stop offset="0.2265" style="stop-color:#54A4DA"></stop>
	<stop offset="0.4057" style="stop-color:#2B8DCD"></stop>
	<stop offset="0.5674" style="stop-color:#0076BF"></stop>
	<stop offset="1" style="stop-color:#004DA1"></stop>
</linearGradient>
<path fill="none" stroke="url(#SVGID_5_)" stroke-width="5" stroke-miterlimit="10" d="M219.903,272.929H207.87
	c-3.327,0-6.016,3.024-6.016,6.766s2.689,6.767,6.016,6.767h12.032c3.327,0,6.016-3.025,6.016-6.767
	S223.229,272.929,219.903,272.929z" class="fnastAQY_4"></path>
<linearGradient id="SVGID_6_" gradientUnits="userSpaceOnUse" x1="271.5476" y1="259.3828" x2="312.6433" y2="259.3828">
	<stop offset="0" style="stop-color:#77B7E5"></stop>
	<stop offset="0.0851" style="stop-color:#6EB2E2"></stop>
	<stop offset="0.2265" style="stop-color:#54A4DA"></stop>
	<stop offset="0.4057" style="stop-color:#2B8DCD"></stop>
	<stop offset="0.5674" style="stop-color:#0076BF"></stop>
	<stop offset="1" style="stop-color:#004DA1"></stop>
</linearGradient>
<path fill="none" stroke="url(#SVGID_6_)" stroke-width="5" stroke-miterlimit="10" d="M280.063,266.149h24.064
	c3.327,0,6.016-3.025,6.016-6.767s-2.688-6.766-6.016-6.766h-24.064c-3.327,0-6.016,3.024-6.016,6.766
	S276.736,266.149,280.063,266.149z" class="fnastAQY_5"></path>
<linearGradient id="SVGID_7_" gradientUnits="userSpaceOnUse" x1="277.5632" y1="279.6953" x2="306.6277" y2="279.6953">
	<stop offset="0" style="stop-color:#77B7E5"></stop>
	<stop offset="0.0851" style="stop-color:#6EB2E2"></stop>
	<stop offset="0.2265" style="stop-color:#54A4DA"></stop>
	<stop offset="0.4057" style="stop-color:#2B8DCD"></stop>
	<stop offset="0.5674" style="stop-color:#0076BF"></stop>
	<stop offset="1" style="stop-color:#004DA1"></stop>
</linearGradient>
<path fill="none" stroke="url(#SVGID_7_)" stroke-width="5" stroke-miterlimit="10" d="M298.111,272.929H286.08
	c-3.327,0-6.017,3.024-6.017,6.766s2.689,6.767,6.017,6.767h12.031c3.327,0,6.017-3.025,6.017-6.767
	S301.438,272.929,298.111,272.929z" class="fnastAQY_6"></path>
<style data-made-with="vivus-instant">.fnastAQY_0{stroke-dasharray:6969 6971;stroke-dashoffset:6970;animation:fnastAQY_draw_0 6700ms linear 0ms infinite,fnastAQY_fade 6700ms linear 0ms infinite;}.fnastAQY_1{stroke-dasharray:89 91;stroke-dashoffset:90;animation:fnastAQY_draw_1 6700ms linear 0ms infinite,fnastAQY_fade 6700ms linear 0ms infinite;}.fnastAQY_2{stroke-dasharray:65 67;stroke-dashoffset:66;animation:fnastAQY_draw_2 6700ms linear 0ms infinite,fnastAQY_fade 6700ms linear 0ms infinite;}.fnastAQY_3{stroke-dasharray:89 91;stroke-dashoffset:90;animation:fnastAQY_draw_3 6700ms linear 0ms infinite,fnastAQY_fade 6700ms linear 0ms infinite;}.fnastAQY_4{stroke-dasharray:65 67;stroke-dashoffset:66;animation:fnastAQY_draw_4 6700ms linear 0ms infinite,fnastAQY_fade 6700ms linear 0ms infinite;}.fnastAQY_5{stroke-dasharray:89 91;stroke-dashoffset:90;animation:fnastAQY_draw_5 6700ms linear 0ms infinite,fnastAQY_fade 6700ms linear 0ms infinite;}.fnastAQY_6{stroke-dasharray:65 67;stroke-dashoffset:66;animation:fnastAQY_draw_6 6700ms linear 0ms infinite,fnastAQY_fade 6700ms linear 0ms infinite;}@keyframes fnastAQY_draw{100%{stroke-dashoffset:0;}}@keyframes fnastAQY_fade{0%{stroke-opacity:1;}94.02985074626866%{stroke-opacity:1;}100%{stroke-opacity:0;}}@keyframes fnastAQY_draw_0{11.940298507462686%{stroke-dashoffset: 6970}49.25373134328358%{ stroke-dashoffset: 0;}100%{ stroke-dashoffset: 0;}}@keyframes fnastAQY_draw_1{11.940298507462686%{stroke-dashoffset: 90}49.25373134328358%{ stroke-dashoffset: 0;}100%{ stroke-dashoffset: 0;}}@keyframes fnastAQY_draw_2{11.940298507462686%{stroke-dashoffset: 66}49.25373134328358%{ stroke-dashoffset: 0;}100%{ stroke-dashoffset: 0;}}@keyframes fnastAQY_draw_3{11.940298507462686%{stroke-dashoffset: 90}49.25373134328358%{ stroke-dashoffset: 0;}100%{ stroke-dashoffset: 0;}}@keyframes fnastAQY_draw_4{11.940298507462686%{stroke-dashoffset: 66}49.25373134328358%{ stroke-dashoffset: 0;}100%{ stroke-dashoffset: 0;}}@keyframes fnastAQY_draw_5{11.940298507462686%{stroke-dashoffset: 90}49.25373134328358%{ stroke-dashoffset: 0;}100%{ stroke-dashoffset: 0;}}@keyframes fnastAQY_draw_6{11.940298507462686%{stroke-dashoffset: 66}49.25373134328358%{ stroke-dashoffset: 0;}100%{ stroke-dashoffset: 0;}}</style></svg>
